<svg class="img-fluid" xmlns="http://www.w3.org/2000/svg" width="100%" height="100" viewBox="0 0 116 38" fill="none"> <g clip-path="url(#clip0_401_83434)"> <path d="M97.5088 32.8825C97.4974 32.7283 97.5177 32.5733 97.5684 32.4276C97.6191 32.2819 97.6991 32.1486 97.8032 32.0364C97.9073 31.9241 98.0332 31.8353 98.1729 31.7758C98.3125 31.7163 98.4628 31.6873 98.6141 31.6907C98.8677 31.6944 99.1106 31.7959 99.294 31.975C99.4775 32.154 99.5879 32.3974 99.6032 32.6562C99.6136 32.8077 99.5938 32.9599 99.5451 33.1034C99.4964 33.247 99.4198 33.379 99.3199 33.4915C99.22 33.604 99.0988 33.6946 98.9637 33.7579C98.8286 33.8212 98.6823 33.8559 98.5337 33.8599C98.2722 33.8646 98.0192 33.7653 97.828 33.583C97.6368 33.4006 97.5223 33.1495 97.5088 32.8825Z" fill="#1476D1"></path> <path d="M107.326 29.9031C107.472 31.9887 106.112 33.8597 104.177 33.8597C103.784 33.8622 103.397 33.7589 103.056 33.5601C102.714 33.3614 102.43 33.0743 102.232 32.7276L101.828 35.7657H100.125L101.214 27.5543H102.915L102.809 28.3527C103.068 28.0573 103.385 27.8208 103.739 27.6586C104.093 27.4964 104.476 27.4121 104.864 27.4111C106.206 27.4124 107.225 28.473 107.326 29.9031ZM105.683 30.0819C105.666 29.7532 105.525 29.4439 105.29 29.2193C105.054 28.9947 104.742 28.8724 104.42 28.8781C103.961 28.8966 103.522 29.0742 103.175 29.3817C102.828 29.6893 102.594 30.1084 102.511 30.5703L102.476 30.9045C102.469 31.0039 102.469 31.1037 102.474 31.2033C102.497 31.5348 102.645 31.8443 102.887 32.0665C103.128 32.2887 103.445 32.4064 103.77 32.3949C104.901 32.3939 105.768 31.2977 105.683 30.0819Z" fill="#1476D1"></path> <path d="M111.631 30.2846L113.458 33.7167H111.558L110.392 31.4047L109.517 32.2265L109.319 33.7162H107.617L108.721 25.3857H110.423L109.793 30.1765L112.36 27.5548H114.353L111.631 30.2846Z" fill="#1476D1"></path> <path d="M72.3237 5.89648L72.3198 5.93011L72.3475 5.89648H72.3237Z" fill="#484848"></path> <path d="M18.6405 12.9127C18.5948 12.2496 18.4691 11.5948 18.2663 10.9633C17.933 9.9126 17.3621 8.95706 16.5999 8.17421C16.0137 7.57649 15.3172 7.10365 14.551 6.78305C13.7847 6.46244 12.9637 6.30046 12.1358 6.30652C10.7093 6.29366 9.30752 6.68686 8.08726 7.44209C7.31101 7.94596 6.63562 8.59615 6.09712 9.35806L5.815 9.75251L5.9546 8.71409L7.03579 0.625977H3.06159L2.922 1.67041L0 23.3757L3.9781 23.3735L4.38543 20.1466C4.38543 20.1466 4.39786 20.0408 4.44853 20.1466L4.50797 20.2622C4.90918 21.0289 5.46073 21.7028 6.12817 22.2419C6.79561 22.7809 7.56462 23.1736 8.38716 23.3952C8.90437 23.4968 9.42904 23.5537 9.95559 23.5652H10.018C10.0862 23.5685 10.1517 23.5685 10.208 23.5685C11.3045 23.5662 12.3886 23.3304 13.3911 22.8762C14.3935 22.4219 15.2925 21.7592 16.0305 20.9303C17.904 18.8726 18.8544 15.9518 18.6405 12.9127ZM9.06735 20.2692C6.88426 20.2692 5.19109 18.7058 5.03956 16.5529C5.01558 16.2916 5.00867 16.029 5.01885 15.7668L5.02177 15.7361L5.08414 15.2809L5.17501 14.5903C5.17891 14.5672 5.18475 14.545 5.18889 14.5226C5.88322 11.6244 8.22296 9.60684 10.8909 9.60684C11.722 9.59065 12.5359 9.84983 13.2109 10.3456C13.886 10.8413 14.3861 11.5471 14.6363 12.3574C14.7376 12.6805 14.8004 13.015 14.8234 13.3535C14.8353 13.5201 14.8412 13.6841 14.8412 13.8482C14.8481 15.5415 14.2285 17.1748 13.1066 18.4206C12.5959 18.9987 11.973 19.4617 11.2775 19.7799C10.5821 20.0982 9.82932 20.2648 9.06735 20.2692Z" fill="#484848"></path> <path d="M37.1637 13.5057C37.0956 12.5361 36.8433 11.5893 36.4209 10.7183C35.9918 9.83711 35.4037 9.04671 34.6876 8.38868C33.2194 7.03844 31.3133 6.29309 29.3384 6.29689C27.962 6.29979 26.6009 6.59173 25.3394 7.15462C24.078 7.7175 22.9432 8.53929 22.0053 9.56906C21.1711 10.4583 20.5272 11.5154 20.1148 12.673C19.7023 13.8306 19.5304 15.0634 19.6098 16.2928C19.8931 20.3335 23.318 23.5018 27.4023 23.5018C28.7841 23.4965 30.1501 23.2013 31.4157 22.6343C32.6813 22.0672 33.8195 21.2405 34.7597 20.2054C35.5934 19.3205 36.2378 18.2677 36.6517 17.1143C37.0656 15.9608 37.24 14.7318 37.1637 13.5057ZM31.7066 18.086C31.1696 18.6925 30.5165 19.1801 29.7879 19.5184C29.0593 19.8568 28.2705 20.0389 27.4703 20.0533C26.4475 20.0483 25.4643 19.6494 24.7166 18.936C23.969 18.2227 23.5119 17.2474 23.4366 16.2048C23.3905 15.3793 23.5105 14.5529 23.7891 13.7766C24.0678 13.0003 24.4992 12.2907 25.0567 11.6915C25.5905 11.0897 26.2396 10.6064 26.9637 10.2718C27.6879 9.9371 28.4716 9.75817 29.2662 9.7461C30.2937 9.74662 31.2833 10.1431 32.0374 10.8565C32.7915 11.5699 33.2548 12.5477 33.3347 13.5948C33.3775 14.4174 33.2552 15.2403 32.9753 16.0127C32.6954 16.7852 32.2638 17.4909 31.7071 18.0865L31.7066 18.086Z" fill="#484848"></path> <path d="M55.7886 13.5057C55.7204 12.5361 55.4681 11.5893 55.0458 10.7183C54.6177 9.83648 54.0295 9.0459 53.3124 8.38869C51.8457 7.03807 49.9403 6.2926 47.9662 6.29689C46.5894 6.30006 45.2279 6.59207 43.966 7.15493C42.7041 7.71778 41.5686 8.53946 40.63 9.56907C39.7967 10.4588 39.1537 11.5161 38.7418 12.6737C38.3299 13.8312 38.1581 15.0637 38.2374 16.2928C38.5207 20.3335 41.9429 23.5018 46.027 23.5018C47.4092 23.4968 48.7756 23.2017 50.0416 22.6347C51.3077 22.0676 52.4462 21.2408 53.3868 20.2054C54.2208 19.3208 54.8652 18.268 55.2788 17.1144C55.6924 15.9608 55.866 14.7318 55.7886 13.5057ZM50.3315 18.086C49.7952 18.6927 49.1428 19.1804 48.4146 19.5188C47.6863 19.8572 46.8979 20.0392 46.0981 20.0533C45.0751 20.0494 44.0913 19.6507 43.3434 18.9372C42.5956 18.2237 42.1389 17.2478 42.0647 16.2049C42.018 15.3795 42.1374 14.5532 42.4155 13.7769C42.6936 13.0006 43.1245 12.2908 43.6816 11.6915C44.2162 11.0899 44.866 10.6069 45.5906 10.2722C46.3152 9.93763 47.0993 9.75855 47.8943 9.74611C48.9218 9.74597 49.9114 10.1423 50.6653 10.8559C51.4192 11.5695 51.8818 12.5476 51.9606 13.5948C52.0047 14.4176 51.8829 15.2409 51.6028 16.0135C51.3227 16.7862 50.8902 17.4918 50.3322 18.0865L50.3315 18.086Z" fill="#484848"></path> <path d="M114.356 14.2118C115.205 13.3006 115.585 12.0985 115.484 10.638C115.303 8.08744 112.707 6.30487 109.173 6.30487C107.907 6.29668 106.654 6.55822 105.493 7.07274C104.332 7.58727 103.289 8.34348 102.43 9.29319C101.534 10.282 100.849 11.451 100.419 12.7254C99.9898 13.9999 99.8248 15.352 99.935 16.6953C100.232 20.8699 103.188 23.5684 107.474 23.5684C110.004 23.5684 112.422 22.761 114.029 21.3914L111.67 18.5251C110.403 19.5112 108.858 20.0527 107.265 20.0691C104.985 20.0691 103.746 18.9425 103.588 16.7202L103.547 16.1225H108.059C110.946 16.1942 113.121 15.5356 114.356 14.2118ZM103.594 13.4221L103.882 12.8334C104.845 10.8872 106.663 9.77282 108.877 9.77282C110.186 9.77282 111.191 10.4923 111.259 11.4854C111.274 11.6835 111.249 11.8827 111.184 12.0699C111.119 12.2572 111.016 12.4282 110.881 12.5719C110.376 13.1277 109.39 13.4221 108.031 13.4221H103.594Z" fill="#484848"></path> <path d="M98.9325 9.93082L98.5987 9.21311C97.7507 7.39173 95.982 6.30371 93.8652 6.30371C93.5619 6.30371 93.2454 6.31194 92.925 6.33162C91.8866 6.39787 90.8805 6.72679 89.9972 7.28881C89.1138 7.85083 88.3809 8.62833 87.8643 9.55151L87.8302 9.48031L87.7059 9.21311C87.1771 8.0677 86.241 7.17146 85.0882 6.70692C84.4146 6.43622 83.6967 6.29942 82.9729 6.30395C81.1328 6.30395 79.5171 6.81325 78.4396 8.24266L77.8739 9.07194L78.1704 6.70443H74.1952L71.9992 23.2988H75.9717L77.2872 13.2954C77.5128 11.2636 79.4752 9.60434 81.6607 9.60434C82.766 9.60434 84.1257 10.0548 84.363 12.1848C84.3669 12.2144 84.371 12.2438 84.3737 12.2734C84.3998 12.644 84.2904 13.4438 83.8816 16.4219C83.6601 18.0406 83.3592 20.2275 82.9492 23.2985H86.865L88.1805 13.2952C88.1909 13.1956 88.2066 13.0967 88.2278 12.999C88.5998 11.1044 90.4764 9.6041 92.5538 9.6041C93.6744 9.6041 95.0558 10.0665 95.2667 12.2734C95.2928 12.644 95.1837 13.4438 94.7749 16.4219C94.5529 18.0406 94.2523 20.2275 93.8423 23.2985H97.758C98.5164 17.7843 98.9386 14.5976 99.1152 13.0593C99.2911 10.9658 98.9325 9.93082 98.9325 9.93082Z" fill="#484848"></path> <path d="M57.8487 6.70508H57.8516L55.6526 23.3002L57.8487 6.70508Z" fill="#484848"></path> <path d="M48.889 25.9973C47.4055 28.2962 45.3848 30.1808 43.0097 31.4809C40.6345 32.7809 37.9799 33.4553 35.2857 33.4432C34.2614 33.4435 33.2392 33.3469 32.2324 33.1545L32.121 33.1331L31.4126 36.9982L31.5237 37.0194C32.7642 37.2563 34.0236 37.3754 35.2857 37.3752C38.6175 37.3885 41.8999 36.5528 44.8363 34.9434C47.7727 33.3341 50.2703 31.002 52.1033 28.1581L52.1655 28.0614L48.9514 25.9004L48.889 25.9973Z" fill="#1476D1"></path> <path d="M71.1358 8.78583L73.3009 6.702H68.6384L65.6516 9.6196L60.8006 14.3578L60.9734 13.0654L61.8236 6.70546L62.6358 0.625H58.6568L57.8514 6.70546L55.6524 23.2998H59.6249L60.1816 19.0664L62.83 16.6167L66.5379 23.2998H70.9494L70.5993 22.6817L67.441 17.1061L65.694 14.0224L67.9643 11.8371L71.1358 8.78583Z" fill="#484848"></path> </g> <defs> <clipPath id="clip0_401_83434"> <rect width="115.5" height="36.75" fill="white" transform="translate(0 0.625)"></rect> </clipPath> </defs> </svg>